HIERARCHY
ROOT Hips
{
	OFFSET	0.00	0.00	0.00
	CHANNELS 6 Xposition Yposition Zposition Zrotation Xrotation Yrotation
	JOINT LeftUpLeg
	{
		OFFSET	 0.126116	-0.014019	-0.065224
		CHANNELS 3 Zrotation Xrotation Yrotation
		JOINT LeftLeg
		{
			OFFSET	 0.000000	 0.000000	 0.569914
			CHANNELS 3 Zrotation Xrotation Yrotation
			JOINT LeftFoot
			{
				OFFSET	 0.000000	 0.000000	 0.544423
				CHANNELS 3 Zrotation Xrotation Yrotation
				JOINT LeftToeBase
				{
					OFFSET	 0.000000	 0.000000	 0.207117
					CHANNELS 3 Zrotation Xrotation Yrotation
					End Site
					{
						OFFSET	 0.000000	 0.000000	 0.207117
					}
				}
			}
		}
	}
	JOINT RightUpLeg
	{
		OFFSET	-0.124023	-0.008373	-0.065224
		CHANNELS 3 Zrotation Xrotation Yrotation
		JOINT RightLeg
		{
			OFFSET	 0.000000	 0.000000	 0.570047
			CHANNELS 3 Zrotation Xrotation Yrotation
			JOINT RightFoot
			{
				OFFSET	 0.000000	 0.000000	 0.544354
				CHANNELS 3 Zrotation Xrotation Yrotation
				JOINT RightToeBase
				{
					OFFSET	 0.000000	 0.000000	 0.207540
					CHANNELS 3 Zrotation Xrotation Yrotation
					End Site
					{
						OFFSET	 0.000000	 0.000000	 0.207540
					}
				}
			}
		}
	}
	JOINT Spine
	{
		OFFSET	 0.000184	-0.007763	 0.117403
		CHANNELS 3 Zrotation Xrotation Yrotation
		JOINT Spine1
		{
			OFFSET	 0.000000	 0.000000	 0.137269
			CHANNELS 3 Zrotation Xrotation Yrotation
			JOINT Spine2
			{
				OFFSET	 0.000000	 0.000000	 0.156879
				CHANNELS 3 Zrotation Xrotation Yrotation
				JOINT LeftShoulder
				{
					OFFSET	 0.080501	-0.002496	 0.160144
					CHANNELS 3 Zrotation Xrotation Yrotation
					JOINT LeftArm
					{
						OFFSET	 0.000000	 0.000000	 0.164363
						CHANNELS 3 Zrotation Xrotation Yrotation
						JOINT LeftForeArm
						{
							OFFSET	 0.000000	 0.000000	 0.364576
							CHANNELS 3 Zrotation Xrotation Yrotation
							JOINT LeftHand
							{
								OFFSET	 0.000000	 0.000000	 0.360812
								CHANNELS 3 Zrotation Xrotation Yrotation
								JOINT LeftHandIndex1
								{
									OFFSET	 0.000000	 0.000000	 0.086006
									CHANNELS 3 Zrotation Xrotation Yrotation
									JOINT LeftHandIndex2
									{
										OFFSET	 0.000000	 0.000000	 0.047236
										CHANNELS 3 Zrotation Xrotation Yrotation
										JOINT LeftHandIndex3
										{
											OFFSET	-0.004284	-0.000551	 0.038166
											CHANNELS 3 Zrotation Xrotation Yrotation
											End Site
											{
												OFFSET	-0.004284	-0.000551	 0.038166
											}
										}
									}
								}
							}
						}
					}
				}
				JOINT Neck
				{
					OFFSET	 0.000000	 0.000000	 0.176489
					CHANNELS 3 Zrotation Xrotation Yrotation
					JOINT Head
					{
						OFFSET	 0.000000	-0.001747	 0.077940
						CHANNELS 3 Zrotation Xrotation Yrotation
						End Site
						{
							OFFSET	 0.000000	-0.001747	 0.077940
						}
					}
				}
				JOINT RightShoulder
				{
					OFFSET	-0.080363	 0.000306	 0.159706
					CHANNELS 3 Zrotation Xrotation Yrotation
					JOINT RightArm
					{
						OFFSET	 0.000000	 0.000000	 0.164196
						CHANNELS 3 Zrotation Xrotation Yrotation
						JOINT RightForeArm
						{
							OFFSET	 0.000000	 0.000000	 0.365611
							CHANNELS 3 Zrotation Xrotation Yrotation
							JOINT RightHand
							{
								OFFSET	 0.000000	 0.000000	 0.360648
								CHANNELS 3 Zrotation Xrotation Yrotation
								JOINT RightHandIndex1
								{
									OFFSET	 0.000000	 0.000000	 0.069977
									CHANNELS 3 Zrotation Xrotation Yrotation
									JOINT RightHandIndex2
									{
										OFFSET	 0.000000	 0.000000	 0.052305
										CHANNELS 3 Zrotation Xrotation Yrotation
										JOINT RightHandIndex3
										{
											OFFSET	 0.009002	-0.000782	 0.042196
											CHANNELS 3 Zrotation Xrotation Yrotation
											End Site
											{
												OFFSET	 0.009002	-0.000782	 0.042196
											}
										}
									}
								}
							}
						}
					}
				}
			}
		}
	}
}
MOTION
Frames:    5
Frame Time: 0.03333334
 0.000070	 0.039012	 1.228512	-0.001924	 0.005308	 0.121802	 9.553797	-13.264840	 177.209600	 0.876140	-33.791100	-2.206367	-23.129770	 80.887570	 17.615180	-2.385833	 28.452760	 0.000004	-9.735750	-14.247790	-177.583600	-0.864390	-33.995680	 2.182566	 20.332990	 80.314850	-14.911450	 2.384658	 28.388730	 0.000004	-11.572580	 2.694741	 0.231878	-1.492467	 3.742837	-0.551112	 4.523967	-4.694586	 0.980019	-91.776090	 78.527470	 179.999900	 52.858620	 37.621320	-49.400330	-25.697900	 2.997083	-8.794440	-29.977120	 2.148528	-4.201356	-2.635965	 4.993658	 6.788941	-5.165319	 0.784187	 3.516649	-5.225038	 0.466231	 0.424329	-0.000002	-3.783157	-0.089647	 4.396710	 4.812977	-0.184879	 89.782150	 78.203890	 180.000000	 6.101989	 13.355530	 93.363660	-17.215790	 2.428537	 19.380420	 5.065262	 1.401110	-6.140159	 6.112037	 4.509576	-0.364401	 4.968462	 1.518543	-9.347576	 5.168945	 0.703820	 2.021906
 0.000005	 0.039780	 1.229069	-0.002415	 0.006534	 0.107642	 9.562562	-13.175070	 177.218700	 0.885554	-33.586960	-2.189391	-22.807120	 80.784330	 17.288300	-2.385833	 28.452760	 0.000004	-9.736204	-14.212540	-177.573300	-0.871947	-33.830490	 2.169018	 20.006000	 80.200920	-14.578500	 2.384658	 28.388730	 0.000004	-9.717772	 2.686846	 0.203715	-1.253786	 3.764022	-0.462020	 3.805959	-4.747874	 0.826361	-91.776190	 78.527450	-180.000000	 52.946320	 37.632080	-49.471890	-25.880080	 3.054381	-8.873989	-30.007580	 2.172935	-4.199156	-2.635965	 4.993658	 6.788941	-5.165319	 0.784187	 3.516649	-5.225038	 0.466231	 0.424329	-0.000002	-3.783157	-0.089647	 3.697615	 4.861784	-0.157041	 89.782160	 78.203870	 179.999900	 6.131196	 13.485830	 93.390610	-17.142120	 2.499781	 19.471020	 5.107418	 1.345846	-6.179667	 6.112037	 4.509576	-0.364401	 4.968462	 1.518543	-9.347576	 5.168945	 0.703820	 2.021906
-0.000062	 0.040555	 1.229603	-0.002984	 0.007595	 0.090235	 9.571940	-13.086940	 177.231000	 0.894667	-33.387470	-2.172877	-22.498450	 80.682820	 16.975520	-2.385833	 28.452760	 0.000004	-9.735631	-14.182830	-177.560300	-0.879027	-33.674650	 2.156277	 19.694660	 80.090650	-14.261260	 2.384658	 28.388730	 0.000004	-7.618628	 2.680001	 0.173099	-0.980596	 3.782604	-0.360311	 2.984235	-4.795923	 0.649043	-91.776160	 78.527450	 180.000000	 53.067130	 37.651820	-49.591430	-26.060400	 3.111518	-8.952394	-30.045200	 2.198999	-4.197358	-2.635965	 4.993658	 6.788941	-5.165319	 0.784187	 3.516649	-5.225038	 0.466231	 0.424329	-0.000002	-3.783157	-0.089647	 2.898944	 4.908111	-0.124281	 89.782140	 78.203870	 180.000000	 6.121790	 13.634790	 93.403600	-17.080720	 2.568671	 19.563690	 5.163493	 1.274609	-6.224025	 6.112037	 4.509576	-0.364401	 4.968462	 1.518543	-9.347576	 5.168945	 0.703820	 2.021906
-0.000131	 0.041422	 1.230155	-0.003199	 0.008067	 0.065389	 9.582837	-12.991970	 177.250200	 0.904271	-33.174990	-2.155376	-22.176480	 80.573810	 16.649250	-2.385833	 28.452760	 0.000004	-9.733790	-14.158590	-177.541300	-0.886098	-33.517790	 2.143498	 19.371030	 79.975040	-13.931150	 2.384658	 28.388730	 0.000004	-4.998179	 2.673190	 0.171681	-0.638759	 3.802202	-0.294501	 1.963971	-4.838731	 0.455060	-91.776180	 78.527470	 180.000000	 53.247460	 37.685810	-49.793800	-26.251570	 3.173474	-9.036139	-30.096670	 2.230043	-4.196115	-2.635965	 4.993658	 6.788941	-5.165319	 0.784187	 3.516649	-5.225038	 0.466231	 0.424329	-0.000002	-3.783157	-0.089647	 1.906512	 4.950665	-0.082439	 89.782120	 78.203890	 180.000000	 6.020914	 13.831440	 93.434140	-17.030100	 2.641163	 19.559970	 5.253875	 1.233584	-6.269616	 6.112037	 4.509576	-0.364401	 4.968462	 1.518543	-9.347576	 5.168945	 0.703820	 2.021906
-0.000203	 0.042169	 1.230550	-0.001535	 0.010823	 0.042935	 9.589407	-12.926030	 177.267200	 0.911272	-33.018620	-2.142552	-21.947880	 80.490660	 16.418140	-2.385833	 28.452760	 0.000004	-9.732935	-14.159320	-177.525200	-0.890459	-33.420430	 2.135590	 19.140110	 79.892380	-13.695460	 2.384658	 28.388730	 0.000004	-2.501199	 2.670546	 0.127355	-0.322651	 3.805554	-0.149675	 1.005055	-4.859469	 0.233266	-91.776100	 78.527490	 179.999900	 53.442440	 37.728030	-50.032140	-26.403420	 3.222742	-9.102004	-30.149720	 2.258518	-4.195583	-2.635965	 4.993658	 6.788941	-5.165319	 0.784187	 3.516649	-5.225038	 0.466231	 0.424329	-0.000002	-3.783157	-0.089647	 0.978035	 4.974846	-0.042502	 89.782060	 78.203870	-180.000000	 6.015404	 13.968450	 93.795830	-16.968740	 2.712324	 18.886250	 4.970773	 1.356103	-6.297780	 6.112037	 4.509576	-0.364401	 4.968462	 1.518543	-9.347576	 5.168945	 0.703820	 2.021906
